# xmcd CD database file
#
# Track frame offsets:
#	150
#	49140
#	85347
#	111785
#	140105
#	208570
#	217855
#	238197
#	251530
#	275637
#
# Disc length: 4140 seconds
#
# Revision: 1
# Processed by: cddbd v1.5.2PL0 Copyright (c) Steve Scherf et al.
# Submitted via: CDex 1.70beta2
#
DISCID=96102a0a
DTITLE=Christian Vasseur and Jean-Christophe Lannoy - N'Gaddi
DYEAR=2001
DGENRE=Jazz
TTITLE0=Les vignes d'N'Gaddi
TTITLE1=Jardin d'hiver n°2
TTITLE2=Bleu nuit
TTITLE3=Un matin de juillet
TTITLE4=manège
TTITLE5=Djembut
TTITLE6=Cellostinato
TTITLE7=Cellosolo
TTITLE8=Çavaçava
TTITLE9=Il mestiere di vivere
EXTD=YEAR: 2001
EXTT0=
EXTT1=
EXTT2=
EXTT3=
EXTT4=
EXTT5=
EXTT6=
EXTT7=
EXTT8=
EXTT9=
PLAYORDER=
